<svg xmlns="http://www.w3.org/2000/svg" xmlns:xlink="http://www.w3.org/1999/xlink" width="1167.51" height="286.57" viewBox="0 0 1167.51 286.57">
  <defs>
    <radialGradient id="New_Gradient_4" data-name="New Gradient 4" cx="-41.88" cy="1210.17" r="36.58" gradientTransform="translate(271.33 -2154.5) scale(2.24)" gradientUnits="userSpaceOnUse">
      <stop offset="0" stop-color="#fff100"/>
      <stop offset="0.75" stop-color="#ea5504"/>
      <stop offset="1" stop-color="#e60012"/>
    </radialGradient>
    <radialGradient id="New_Gradient_1" data-name="New Gradient 1" cx="-41.27" cy="1202.27" r="70.23" gradientTransform="translate(506.69 -3853.3) scale(3.59)" gradientUnits="userSpaceOnUse">
      <stop offset="0.03" stop-color="#008cd6"/>
      <stop offset="0.97" stop-color="#0b318f"/>
    </radialGradient>
    <linearGradient id="New_Gradient_7" data-name="New Gradient 7" x1="-140.57" y1="1166.63" x2="-142.25" y2="1198.64" gradientTransform="translate(842.07 -3642.3) scale(3.59)" gradientUnits="userSpaceOnUse">
      <stop offset="0" stop-color="#0075c2"/>
      <stop offset="0.42" stop-color="#00a0e9"/>
      <stop offset="1" stop-color="#7ecef4"/>
    </linearGradient>
    <linearGradient id="New_Gradient_3" data-name="New Gradient 3" x1="-118.64" y1="1134.77" x2="-119.51" y2="1151.42" gradientTransform="translate(842.07 -3642.3) scale(3.59)" gradientUnits="userSpaceOnUse">
      <stop offset="0.05" stop-color="#0075c2"/>
      <stop offset="0.43" stop-color="#00a0e9"/>
      <stop offset="0.95" stop-color="#7ecef4"/>
    </linearGradient>
    <linearGradient id="New_Gradient_5" data-name="New Gradient 5" x1="-137.18" y1="1184.72" x2="-72.94" y2="1184.72" gradientTransform="translate(842.07 -3642.3) scale(3.59)" gradientUnits="userSpaceOnUse">
      <stop offset="0" stop-color="#000e58"/>
      <stop offset="1" stop-color="#003b90"/>
    </linearGradient>
    <linearGradient id="New_Gradient_5-2" x1="-35.48" y1="1206.58" x2="-7.7" y2="1206.58" gradientTransform="translate(503.64 -3770.52) scale(3.59)" xlink:href="#New_Gradient_5"/>
    <linearGradient id="New_Gradient_2" data-name="New Gradient 2" x1="16.35" y1="1215.8" x2="17.77" y2="1188.65" gradientTransform="translate(509.43 4899.86) rotate(180) scale(3.59)" gradientUnits="userSpaceOnUse">
      <stop offset="0.02" stop-color="#0075c2"/>
      <stop offset="0.42" stop-color="#00a0e9"/>
      <stop offset="0.98" stop-color="#7ecef4"/>
    </linearGradient>
  </defs>
  <g id="Page_1" data-name="Page 1">
    <g id="Layer_1-2" data-name="Layer 1">
      <g>
        <path d="M657.68,677.21h10.39l-4.93-13.41-5.46,13.41ZM642.92,690.1l15.36-35.23h10.17l13.73,35.23h-9.34l-2.52-6.85H655.14l-2.82,6.85Zm85.66.3-16-35.53H722l8.72,20.47L740,654.87h9.54L732.41,690.4Zm89-3.25a27.07,27.07,0,0,1-6.49,2.7,27.47,27.47,0,0,1-7,.87,22,22,0,0,1-7.59-1.25,17.41,17.41,0,0,1-6-3.7,17,17,0,0,1-4.07-5.95,18.84,18.84,0,0,1-1.4-7.3q0-8.21,5.47-13.24t14.47-5a27.86,27.86,0,0,1,6.28.71,28.18,28.18,0,0,1,6.06,2.16v8.27a23.87,23.87,0,0,0-5.87-2.82,19.18,19.18,0,0,0-5.89-.94c-3.55,0-6.36,1-8.39,2.9a10.44,10.44,0,0,0-3.06,8A10.67,10.67,0,0,0,797,680.4a10.53,10.53,0,0,0,7.86,3,19.14,19.14,0,0,0,6.37-1.12,26.54,26.54,0,0,0,6.36-3.31v8.23Zm70.8,0a27.14,27.14,0,0,1-6.5,2.7,27.45,27.45,0,0,1-7,.87,22.07,22.07,0,0,1-7.6-1.25,17.59,17.59,0,0,1-6-3.7,17,17,0,0,1-4.06-5.95,18.84,18.84,0,0,1-1.41-7.3,17.15,17.15,0,0,1,5.48-13.24q5.47-5,14.46-5A27.88,27.88,0,0,1,882,655a28.57,28.57,0,0,1,6.06,2.16v8.27a23.87,23.87,0,0,0-5.87-2.82,19.18,19.18,0,0,0-5.89-.94c-3.56,0-6.36,1-8.4,2.9a10.48,10.48,0,0,0-3.06,8,10.63,10.63,0,0,0,2.93,7.88,10.52,10.52,0,0,0,7.85,3,19.05,19.05,0,0,0,6.37-1.12,26.78,26.78,0,0,0,6.37-3.31v8.23Zm53.22-27.47h-8v25.63h8q6.52,0,10.24-3.42t3.73-9.37q0-6-3.73-9.4t-10.24-3.44Zm0-4.81a27.3,27.3,0,0,1,6.71.72,16.68,16.68,0,0,1,5.15,2.33,16.49,16.49,0,0,1,5.53,6.2,18.81,18.81,0,0,1,0,16.72,16.42,16.42,0,0,1-5.51,6.21,15.9,15.9,0,0,1-5.14,2.32,27.15,27.15,0,0,1-6.72.73h-13V654.87Zm57.5,35.23V654.87h5V690.1Zm74.8-17.28v14.91a41.28,41.28,0,0,1-6.59,2.26,25.76,25.76,0,0,1-5.93.73,21.63,21.63,0,0,1-6-.78,18,18,0,0,1-5.14-2.31,18.18,18.18,0,0,1-6.11-6.56,17.84,17.84,0,0,1-2.18-8.73,17.61,17.61,0,0,1,5.52-12.71,18.23,18.23,0,0,1,6.29-4,22.29,22.29,0,0,1,7.83-1.31,25.4,25.4,0,0,1,5.91.71,34.23,34.23,0,0,1,6.06,2.11v5.47a33.22,33.22,0,0,0-6.3-2.68,20.49,20.49,0,0,0-5.72-.87,14.13,14.13,0,0,0-10.19,3.85,13.45,13.45,0,0,0-.05,19.17,13.78,13.78,0,0,0,10,3.84,17.9,17.9,0,0,0,3.63-.38,23.49,23.49,0,0,0,3.75-1.2v-6.82h-6.63v-4.69Zm38.73,17.28V654.87h5V690.1Zm54.33,0V659.45h-13v-4.58h30.91v4.58h-13V690.1ZM1224,675.2h11l-5.56-12.7L1224,675.2Zm-11.61,14.9,15.27-35.23h3.67l15.46,35.23h-5.21l-4.54-10.38h-15l-4.48,10.38Zm69.26,0V654.87h5v30.7h16.77v4.53Z" transform="translate(-144.33 -429.19)" style="fill: #231815"/>
        <path d="M1161.69,578.27l8,29.18-18.47.18.44,21.33h29c7.94,0,13.7-2.67,17-7.14s4-10.71,1.92-17.86L1192,578.27Zm82.26-51V519.7h29.22v7.52Zm29.22,18.17v8.21H1244v-8.21Zm-161.42-45.8L1112,630h13.74c13.75,0,20.82-5.54,20.82-16.62V493.66h61.94l0,9.25h-51.76V519.7h51.83l-.07,7.52h-55.2v18.17h55.2v8.21h-52.6v16.61h53.3l0,59.79,14.59.36c12.9.32,20.2-5.53,20.2-16.62V570.21h59.27l.22-24.82h8.4V527.22h-8.4v-4.74q0-11-8.15-15.83-6.33-3.73-17.62-3.74H1244v-9.25h67.83l-30.63-30,0,8.69h-38.52v-7h-35.45v7h-64.08q-31.77,0-31.38,27.27Zm-235,.18V630.36h14.85c12.42,0,18.87-5.49,18.87-16.44V499.06h100.33L1045,630.36h33L1062,568.92l16.87-11.3.44-35.29L1054.7,540.8l-10.85-41.74h46.92l-31.18-31.13v8.42H1038l-3-11h-32.91l2.85,11h-100q-14.17,0-21.22,5.85t-6.93,17.57Zm41.68,7.52v19.93h87.61V507.29Zm-137.8-29.81H705V465.31H670.69v12.17h-30.1v23.69h30.2l-.1,12.42H705V501.17h75.72l-.1,12.42H815V501.17h41.85l-31.15-31.6-.09,7.91H815V465.31H780.66v12.17Zm58.46,151.37H799.23a48.76,48.76,0,0,1-14.81-1.92,45.07,45.07,0,0,1-12.32-6.22l-30.89-21.18-30.88,21.18A45.07,45.07,0,0,1,698,626.93a48.81,48.81,0,0,1-14.81,1.92H643.31v-25h18.61a25.45,25.45,0,0,0,9.09-1.41,36.63,36.63,0,0,0,7.94-4.37l30.21-20.51-32.06-22a29.4,29.4,0,0,0-7.62-4,28.07,28.07,0,0,0-8.89-1.18H643.31v-25h40.14a40.6,40.6,0,0,1,13.39,2,43.87,43.87,0,0,1,10.8,5.61l33.57,22.8L774.79,533a43.87,43.87,0,0,1,10.8-5.61,40.6,40.6,0,0,1,13.39-2h40.14v25H821.84a28.07,28.07,0,0,0-8.89,1.18,29.4,29.4,0,0,0-7.62,4l-32.06,22,30.21,20.51a36.63,36.63,0,0,0,7.94,4.37,25.45,25.45,0,0,0,9.09,1.41h18.61v25ZM965,587.45a23.13,23.13,0,0,1-6-5.1c-1.89-2.23-3.32-4.78-3.32-7.06v-9.88h18.74l.06,9.88c0,2.27-1.49,4.83-3.42,7.06a25.52,25.52,0,0,1-6,5.1Zm-9.45-44.24v-9.78H925.24v9.78h-8.83v22.2h8.83l0,12.79c0,6.72,3.2,11.74,7.54,15.78a67.51,67.51,0,0,0,11.54,8.32c-7.88,2.68-15.72,5.24-25.88,6l.19,21.51a158.93,158.93,0,0,0,24.91-4.64A114.77,114.77,0,0,0,965,617.37a118.66,118.66,0,0,0,18.65,7.06,147.24,147.24,0,0,0,27.76,5.34l.18-21.51c-10.15-.72-17.8-3.28-25.68-6a74.37,74.37,0,0,0,11.18-8.36c4.39-4.05,7.71-9.07,7.7-15.74l0-12.79h8.83v-22.2h-8.84v-9.78h-30.3v9.78Zm336.2,35.06-8,29.18,18.47.18-.44,21.33h-29c-9.91,0-16.44-4.18-18.92-10.81-1.49-4-1.52-8.83,0-14.19l7.51-25.69Z" transform="translate(-144.33 -429.19)" style="fill: #231815"/>
      </g>
      <g>
        <path d="M201.91,514.89a57.59,57.59,0,1,1-57.58,57.59,57.6,57.6,0,0,1,57.58-57.59Z" transform="translate(-144.33 -429.19)" style="fill-rule: evenodd;fill: url(#New_Gradient_4)"/>
        <g>
          <path d="M436.9,429.19A143.29,143.29,0,1,1,319.41,654.48a143.27,143.27,0,0,0,0-164A143.12,143.12,0,0,1,436.9,429.19Zm0,85.7a57.59,57.59,0,1,1-57.59,57.59,57.6,57.6,0,0,1,57.59-57.59Z" transform="translate(-144.33 -429.19)" style="fill-rule: evenodd;fill: url(#New_Gradient_1)"/>
          <path d="M325.13,662.1q-3-3.71-5.72-7.62a142.56,142.56,0,0,0,25.79-82,144.2,144.2,0,0,0-2.45-26.54A150.3,150.3,0,0,1,325.13,662.1Z" transform="translate(-144.33 -429.19)" style="fill-rule: evenodd;fill: url(#New_Gradient_7)"/>
          <path d="M436.9,429.19a142.51,142.51,0,0,1,72,19.38,149.9,149.9,0,0,0-186.46,46.36q-1.46-2.25-3-4.46A143.12,143.12,0,0,1,436.9,429.19Z" transform="translate(-144.33 -429.19)" style="fill-rule: evenodd;fill: url(#New_Gradient_3)"/>
          <path d="M564.55,507.34A143.28,143.28,0,0,1,349.51,686a145.35,145.35,0,0,0,215-178.67Z" transform="translate(-144.33 -429.19)" style="fill-rule: evenodd;fill: url(#New_Gradient_5)"/>
          <path d="M433.85,512A57.43,57.43,0,0,1,476,530.33a57.58,57.58,0,0,0-81.38,81.38A57.58,57.58,0,0,1,433.85,512Z" transform="translate(-144.33 -429.19)" style="fill-rule: evenodd;fill: url(#New_Gradient_5-2)"/>
          <path d="M439.81,633a57.46,57.46,0,0,1-42.16-18.36A57.58,57.58,0,0,0,479,533.25,57.57,57.57,0,0,1,439.81,633Z" transform="translate(-144.33 -429.19)" style="fill-rule: evenodd;fill: url(#New_Gradient_2)"/>
        </g>
      </g>
    </g>
  </g>
</svg>
