<?xml version="1.0" encoding="utf-8"?>
<!-- Generator: Adobe Illustrator 24.1.3, SVG Export Plug-In . SVG Version: 6.00 Build 0)  -->
<svg version="1.0" id="Layer_1" xmlns="http://www.w3.org/2000/svg" xmlns:xlink="http://www.w3.org/1999/xlink" x="0px" y="0px"
	 viewBox="0 0 259.3 56.3" style="enable-background:new 0 0 259.3 56.3;" xml:space="preserve">
<style type="text/css">
	.st0{fill:#6FBA2C;}
	.st1{fill:#9DA4A7;}
	.st2{fill:#009944;}
</style>
<g>
	<g id="XMLID_333_">
		<g id="XMLID_382_">
			<path id="XMLID_396_" class="st0" d="M10.6,35.1H1.9V19.9c0-0.6,0-1.4-1-1.4C0,18.5,0,19.3,0,19.9v15.3c0,1.3,0.2,1.4,1.5,1.4h9
				c0.6,0,1.4,0,1.4-0.8C11.9,35.1,11.2,35.1,10.6,35.1z"/>
			<path id="XMLID_395_" class="st0" d="M14.4,23.4c-0.8,0-0.8,0.7-0.8,1.3v11c0,0.6,0,1.3,0.8,1.3c0.8,0,0.8-0.7,0.8-1.3v-11
				C15.3,24.2,15.3,23.4,14.4,23.4z"/>
			<path id="XMLID_394_" class="st0" d="M14.4,19c-0.6,0-1.1,0.4-1.1,1c0,0.5,0.5,1,1.1,1c0.6,0,1.1-0.5,1.1-1
				C15.5,19.4,15,19,14.4,19z"/>
			<path id="XMLID_391_" class="st0" d="M22.7,23.7h-1.8v-1.1c0-1.6,0.2-2.7,2.2-2.7c0.1,0,0.3,0,0.5,0c0.3,0,0.5,0.1,0.6,0.1
				c0.4,0,0.7-0.3,0.7-0.7c0,0,0-0.4-0.4-0.6c-0.3-0.1-1.2-0.3-2-0.3c-0.6,0-1.2,0.1-1.7,0.4c-0.5,0.3-1,0.6-1.2,1.1
				c-0.2,0.3-0.4,0.9-0.4,2.4v1.4h-1.4c-0.3,0-1.1,0-1.1,0.6c0,0.6,0.7,0.6,1.1,0.6h1.4v10.8c0,0.6,0,1.3,0.8,1.3
				c0.8,0,0.8-0.7,0.8-1.3V24.9h1.8c0.7,0,1.1-0.2,1.1-0.6C23.7,23.7,23,23.7,22.7,23.7z M21.1,20.8C21.1,20.8,21.1,20.9,21.1,20.8
				C21.1,20.9,21.1,20.8,21.1,20.8z"/>
			<path id="XMLID_388_" class="st0" d="M36.1,29.3c0-0.1,0-1.6-0.8-3c-0.4-0.8-1-1.5-1.8-2c-0.1-0.1-0.2-0.1-0.3-0.1
				c-0.1,0-0.1-0.1-0.2-0.1c-0.2-0.1-0.4-0.2-0.6-0.2c-0.1,0-0.1,0-0.2-0.1c-0.2-0.1-0.4-0.1-0.7-0.2c0,0-0.1,0-0.1,0
				c-0.3,0-0.6-0.1-0.9-0.1c0,0-0.1,0-0.1,0c-0.2,0-0.3,0-0.5,0c-2,0-3.6,0.6-4.7,1.9c-1.1,1.2-1.6,2.9-1.6,4.9c0,2,0.5,3.6,1.6,4.8
				c0.5,0.6,1.2,1.1,2,1.4c0.8,0.3,1.8,0.5,2.8,0.5c2.4,0,3.9-1,4.6-1.8c0.9-0.9,1.1-1.9,1.1-2.1c0-0.3-0.3-0.7-0.8-0.7
				c-0.3,0-0.7,0.2-0.8,0.6c-0.5,1.1-1.2,1.9-2.2,2.4c-0.6,0.3-1.2,0.4-1.9,0.4c-1.5,0-2.7-0.5-3.5-1.5c-0.8-0.9-1.2-2.2-1.2-3.8
				h9.1C35.4,30.4,36.1,30.4,36.1,29.3z M25.5,29.1c0.2-1.6,1.4-4.4,4.5-4.4c3.9,0,4.2,3.3,4.4,4.4H25.5z"/>
			<path id="XMLID_387_" class="st0" d="M44.7,18.5c-0.9,0-0.9,0.8-0.9,1.4v15.6c0,0.6,0,1.4,1,1.4c0.9,0,0.9-0.8,0.9-1.4V19.9
				C45.6,19.3,45.6,18.5,44.7,18.5z"/>
			<path id="XMLID_386_" class="st0" d="M75.1,28c0.6,0,0.9-0.5,0.9-0.9V16.3h-1.9V27C74.1,27.5,74.5,28,75.1,28z"/>
			<path id="XMLID_385_" class="st0" d="M57.4,30.2c-0.1-0.1-0.2-0.1-0.4-0.2c0,0-0.1,0-0.1-0.1c-0.9-0.4-2-0.6-3-0.9
				c-1-0.2-2-0.4-2.7-0.8C50.4,28,50,27.5,50,26.8c0-1.4,1.7-2.1,3.4-2.1c1.7,0,3.1,0.7,3.5,1.8c0.2,0.7,0.4,0.8,0.8,0.8
				c0.8,0,0.8-0.7,0.8-0.7c0-0.2-0.1-0.9-0.8-1.7c-0.4-0.4-0.9-0.8-1.5-1c-0.8-0.3-1.7-0.5-2.8-0.5c-1.9,0-3.3,0.5-4.1,1.5
				c-0.8,0.9-0.8,1.9-0.8,2.1c0,0.9,0.5,1.8,1.3,2.4c0.8,0.5,1.7,0.8,3.4,1.2c0.5,0.1,1,0.2,1.6,0.4l0.1,0c0.9,0.2,2.7,0.7,2.7,2.2
				c0,1.2-1.2,2.4-3.8,2.4c-1.9,0-3.2-0.7-3.8-2.2l0,0c-0.2-0.4-0.4-0.8-0.8-0.8c-0.2,0-0.4,0.1-0.6,0.2c-0.2,0.1-0.3,0.3-0.3,0.5
				c0,0.7,0.6,1.8,1.5,2.4c0.4,0.3,0.9,0.6,1.4,0.8c0.7,0.2,1.5,0.3,2.5,0.3c2.2,0,3.7-0.5,4.7-1.6c0.8-0.9,0.9-2,0.9-2.4
				C59.1,31.8,58.6,30.9,57.4,30.2z"/>
			<path id="XMLID_384_" class="st0" d="M96.7,24.8c-0.6-0.6-1.7-1.4-3.7-1.4c-2.6,0-3.7,1.2-4.5,2.2v-1c0-0.4,0-0.8-0.2-1
				c0,0-0.1,0-0.1-0.1c0,0,0,0,0,0c-0.1-0.1-0.3-0.1-0.5-0.1c-0.8,0-0.8,0.7-0.8,1.3v11c0,0.6,0,1.3,0.8,1.3c0.2,0,0.3,0,0.5-0.1
				c0,0,0,0,0,0c0,0,0.1,0,0.1-0.1c0.2-0.2,0.2-0.7,0.2-1V31c0-2.1,0.1-3.2,0.5-4c0.3-0.7,0.9-1.3,1.6-1.7c0.7-0.4,1.5-0.6,2.2-0.6
				c1.1,0,2.1,0.5,2.7,1.2c0.5,0.7,0.6,1.7,0.6,2.6v7.1c0,0.4,0,0.8,0.2,1c0,0,0.1,0,0.1,0.1c0,0,0,0,0,0c0.1,0.1,0.3,0.1,0.5,0.1
				c0.8,0,0.8-0.7,0.8-1.3v-7.4C97.7,27.5,97.7,25.9,96.7,24.8z"/>
			<path id="XMLID_383_" class="st0" d="M77.7,18.3v1.8c3.1,1.1,5.3,4,5.3,7.4c0,4.3-3.5,7.9-7.9,7.9s-7.9-3.5-7.9-7.9
				c0-3.4,2.1-6.2,5.1-7.4v-1.9c-4,1.2-6.9,4.9-6.9,9.2c0,5.3,4.3,9.6,9.6,9.6s9.6-4.3,9.6-9.6C84.8,23.1,81.8,19.4,77.7,18.3z"/>
		</g>
		<rect id="XMLID_381_" x="114.3" y="0" class="st1" width="1" height="56.2"/>
	</g>
	<g>
		<g>
			<path class="st2" d="M132,45.2c-0.2,0-0.3-0.1-0.5-0.2c-0.1-0.1-0.2-0.2-0.2-0.4c0-0.2,0.1-0.3,0.2-0.4c0.1-0.1,0.3-0.2,0.4-0.2
				h1.9c-0.1-0.4-0.2-0.6-0.3-0.8c-0.1-0.2-0.2-0.4-0.2-0.5c0-0.1,0-0.2,0.2-0.4c0.1-0.1,0.3-0.2,0.5-0.2c0.2,0,0.4,0.1,0.5,0.2
				c0.1,0.1,0.2,0.3,0.4,0.6c0.1,0.3,0.2,0.5,0.2,0.6l0.2,0.6h2.1c0.2,0,0.3,0,0.5,0.1c0.1,0.1,0.2,0.2,0.2,0.4c0,0.2,0,0.3-0.2,0.4
				c-0.1,0.1-0.3,0.2-0.5,0.2h-2.7v1.8h1.5c0.3,0,0.7,0,1,0.2c0.4,0.2,0.6,0.6,0.6,1.4l0,0.5c0,0.5,0,1.3-0.1,2.4
				c-0.1,1.1-0.1,1.9-0.2,2.5c-0.1,0.6-0.3,1-0.5,1.4c-0.3,0.4-0.8,0.5-1.5,0.5c-0.3,0-0.5,0-0.7-0.1c-0.2-0.1-0.4-0.1-0.5-0.2
				c-0.1-0.1-0.2-0.2-0.2-0.4c0-0.2,0.1-0.3,0.2-0.4c0.1-0.1,0.3-0.1,0.6-0.1l0.5,0c0.2,0,0.4,0,0.5-0.1c0.1-0.1,0.2-0.3,0.3-0.8
				c0.1-0.4,0.2-1.7,0.3-3.6l0.1-1.4c0-0.2,0-0.3-0.1-0.5c-0.1-0.1-0.3-0.2-0.7-0.2h-0.9c-0.1,0.7-0.1,1.4-0.2,1.9
				c-0.1,0.5-0.1,1-0.2,1.5c-0.1,0.5-0.2,1-0.4,1.5l-0.5,1.4c-0.2,0.5-0.4,0.9-0.6,1.2c-0.2,0.3-0.4,0.4-0.7,0.5
				c-0.3,0-0.5,0-0.6-0.2c-0.1-0.2-0.1-0.4,0-0.8c0,0,0.1-0.3,0.4-0.7c0.2-0.4,0.9-1.8,1.2-3.6c0.1-0.4,0.4-2.1,0.4-4l0-1.7H132z
				 M148.2,43.2c0.2,0,0.3,0.1,0.4,0.2c0.1,0.1,0.2,0.2,0.2,0.4c0,0.2-0.1,0.3-0.2,0.4c-0.1,0.1-0.3,0.2-0.4,0.2h-7.8
				c-0.3,0.5-0.6,1-1,1.4c-0.3,0.4-0.6,0.7-0.9,0.8c-0.3,0.1-0.5,0.1-0.7-0.1c-0.2-0.1-0.2-0.3-0.1-0.6c0-0.1,0.2-0.3,0.4-0.5
				c0.2-0.3,0.4-0.6,0.7-0.9c0.2-0.4,0.4-0.8,0.6-1.2c0.1-0.4,0.3-0.7,0.4-0.9c0.1-0.2,0.3-0.3,0.5-0.3c0.2,0,0.4,0,0.5,0.2
				c0.1,0.2,0.2,0.3,0.1,0.5l-0.1,0.4H148.2z M140.9,48.1l2.2-0.6v-2.3c0-0.2,0.1-0.3,0.2-0.4c0.1-0.1,0.3-0.2,0.5-0.2
				c0.2,0,0.4,0.1,0.5,0.2c0.1,0.1,0.2,0.3,0.2,0.4V47l2-0.6c0.7-0.2,1.2-0.2,1.4-0.1c0.2,0.2,0.3,0.4,0.4,0.6
				c0.1,0.2,0.1,0.4,0.1,0.6v2.5c0,0.6-0.1,1-0.2,1.3c-0.1,0.3-0.4,0.5-0.7,0.7c-0.3,0.2-0.8,0.3-1.5,0.3c-0.7,0-1-0.2-1-0.6
				c0-0.2,0.1-0.3,0.2-0.4c0.1-0.1,0.3-0.1,0.5-0.2l0.5,0c0.3,0,0.4-0.1,0.5-0.1c0.1-0.1,0.2-0.3,0.2-0.5c0-0.2,0.1-0.4,0.1-0.6
				v-1.7c0-0.2,0-0.3-0.1-0.4c-0.1-0.1-0.1-0.2-0.2-0.2c-0.1,0-0.2,0-0.3,0l-1.9,0.6v5.3c0,0.1-0.1,0.3-0.2,0.4
				c-0.1,0.1-0.3,0.2-0.5,0.2c-0.2,0-0.4,0-0.5-0.1c-0.1-0.1-0.2-0.2-0.2-0.4v-4.9l-2.2,0.7v4.2c0,0.5,0.1,0.8,0.4,1
				c0.3,0.2,0.6,0.3,0.9,0.3c0.3,0.1,1,0.1,1.9,0.1c0.7,0,1.2,0,1.8-0.1c0.5-0.1,1.1-0.2,1.3-0.3c0.2-0.2,0.3-0.9,0.3-0.9
				c0-0.3,0.2-0.8,0.6-0.8c0.1,0,0.2,0,0.4,0.1c0.1,0.1,0.2,0.1,0.3,0.3c0.1,0.1,0.1,0.3,0.1,0.5c0,0.2,0,0.4-0.1,0.5
				c-0.2,0.8-0.3,1.3-1,1.5c-0.7,0.3-2.4,0.4-4.6,0.3c-0.8,0-1.5-0.1-2-0.2c-0.6-0.1-1-0.3-1.1-0.6c-0.2-0.3-0.3-0.5-0.4-0.8
				c-0.1-0.2-0.1-0.6-0.1-0.9v-3.8c-0.3,0.1-0.5,0.1-0.7,0.2c-0.2,0-0.3-0.1-0.5-0.2c-0.2-0.1-0.2-0.3-0.2-0.4
				c0-0.2,0.1-0.3,0.2-0.5c0.1-0.1,0.5-0.3,1.2-0.4v-1.8c0-0.2,0.1-0.3,0.2-0.4c0.1-0.1,0.3-0.2,0.5-0.2c0.2,0,0.4,0.1,0.5,0.2
				c0.1,0.1,0.2,0.3,0.2,0.4V48.1z"/>
			<path class="st2" d="M164.8,43.9l-0.5,1.8h2.5c0.6,0,1,0.1,1.3,0.3c0.2,0.2,0.4,0.4,0.4,0.5c0.1,0.1,0.1,0.3,0.1,0.6V55
				c0,0.3-0.1,0.6-0.3,0.8c-0.2,0.3-0.7,0.4-1.4,0.4c-0.2,0-0.6-0.1-1.2-0.1c-0.6-0.1-0.9-0.2-0.9-0.5c0-0.2,0-0.4,0.1-0.5
				c0.1-0.1,0.3-0.2,0.6-0.2c0.1,0,0.2,0.1,0.5,0.1c0.2,0.1,0.4,0.1,0.6,0.1c0.3,0,0.4,0,0.5-0.1c0.1-0.1,0.1-0.3,0.1-0.6v-6.9
				c0-0.2,0-0.3-0.1-0.4c-0.1-0.1-0.2-0.2-0.5-0.2h-0.6V54c0,0.2-0.1,0.3-0.2,0.4c-0.1,0.1-0.2,0.2-0.4,0.2c-0.2,0-0.3,0-0.5-0.1
				c-0.2-0.1-0.3-0.3-0.3-0.5v-7.1h-1.4v7.4c0,0.2-0.1,0.3-0.2,0.4c-0.1,0.1-0.3,0.2-0.4,0.2c-0.2,0-0.3-0.1-0.5-0.2
				c-0.1-0.1-0.2-0.3-0.2-0.4v-7.4h-0.6c-0.2,0-0.4,0-0.5,0.1c-0.1,0-0.2,0.1-0.2,0.2c0,0.1,0,0.2,0,0.3v8.2c0,0.2-0.1,0.4-0.2,0.5
				c-0.2,0.1-0.3,0.2-0.5,0.2c-0.2,0-0.3-0.1-0.4-0.2c-0.1-0.1-0.2-0.3-0.2-0.5v-8.4c0-0.2,0-0.5,0.1-0.7c0.1-0.2,0.2-0.4,0.3-0.5
				c0.1-0.1,0.2-0.2,0.4-0.2c0.2-0.1,0.5-0.1,0.7-0.1h1.9l0.6-1.8h-3.6c-0.3,0-0.5-0.1-0.6-0.2c-0.1-0.1-0.2-0.2-0.3-0.4
				c0-0.1,0-0.3,0.2-0.5c0.2-0.2,0.4-0.2,0.7-0.2h8.8c0.2,0,0.4,0.1,0.6,0.2c0.2,0.1,0.2,0.3,0.2,0.5c0,0.1-0.1,0.2-0.3,0.4
				c-0.2,0.1-0.4,0.1-0.6,0.1H164.8z M173.5,44.5v-1.6c0-0.2,0.1-0.3,0.2-0.5c0.1-0.1,0.3-0.2,0.4-0.2c0.2,0,0.3,0,0.5,0.2
				c0.2,0.1,0.3,0.3,0.3,0.5v1.6h0.7c0.2,0,0.4,0.1,0.5,0.2c0.1,0.1,0.2,0.2,0.3,0.4c0,0.1,0,0.3-0.2,0.4c-0.2,0.1-0.4,0.2-0.6,0.2
				h-0.7v8.5c0,0.2-0.1,0.6-0.2,1c-0.1,0.4-0.4,0.7-0.7,0.8c-0.4,0.1-0.7,0.2-1.1,0.2c-1,0-1.9-0.1-2.3-0.3
				c-0.3-0.2-0.4-0.4-0.4-0.4c0-0.1,0-0.2,0-0.3c0-0.1,0.1-0.2,0.2-0.3c0.1-0.1,0.3-0.1,0.4-0.1c0.1,0,0.4,0,0.7,0.1
				c0.3,0.1,0.6,0.1,0.8,0.1c0.3,0,0.6-0.1,0.7-0.2c0.1-0.1,0.2-0.3,0.3-0.5c0.1-0.2,0.1-0.4,0.1-0.6v-8.1h-4.2
				c-0.2,0-0.4-0.1-0.6-0.2c-0.2-0.1-0.2-0.3-0.2-0.4c0-0.1,0.1-0.3,0.2-0.4c0.2-0.1,0.3-0.2,0.5-0.2H173.5z M171.4,48.3
				c0.5,1.6,0.8,2.7,0.9,3.3c0.1,0.6,0,1-0.1,1.1c-0.1,0.1-0.3,0.2-0.5,0.2c-0.2,0-0.4,0-0.5-0.1c-0.1-0.1-0.2-0.2-0.2-0.3
				c0-0.1-0.1-0.4-0.2-0.7c-0.1-0.3-0.2-0.8-0.3-1.5c-0.2-0.7-0.4-1.3-0.6-1.7c-0.2-0.5-0.3-0.8-0.3-0.9c0-0.1,0-0.3,0.1-0.4
				c0.1-0.1,0.2-0.2,0.4-0.2c0.2-0.1,0.3-0.1,0.5,0C170.9,47.1,171.1,47.5,171.4,48.3z"/>
			<g>
				<path class="st2" d="M192.1,51.9c0.2,0,0.4,0,0.5,0.1c0.1,0.1,0.2,0.2,0.2,0.4c0,0.1,0,0.3,0,0.5c-0.1,0.3-0.2,0.6-0.3,0.9
					l-0.4,1.1c-0.1,0.3-0.2,0.5-0.3,0.8c-0.1,0.2-0.3,0.4-0.6,0.4c-0.3,0-0.5,0-0.6-0.1c-0.1-0.1-0.2-0.2-0.2-0.3
					c0-0.1,0-0.2,0.1-0.4l0.6-1.4c0.3-0.9,0.5-1.4,0.6-1.6C191.7,52,191.9,52,192.1,51.9z"/>
				<path class="st2" d="M193.7,54v-1.8c0-0.2,0.1-0.4,0.3-0.5c0.2-0.1,0.4-0.2,0.6-0.2c0.2,0,0.3,0.1,0.5,0.2
					c0.1,0.1,0.2,0.3,0.2,0.4V54c0,0.2,0.1,0.4,0.2,0.6c0.1,0.3,1.1,0.4,2.2,0.4c1,0,1.7,0,1.9-0.2c0.2-0.2,0.3-0.3,0.4-0.6l0.1-0.4
					c0-0.1,0.1-0.2,0.2-0.3c0.1-0.1,0.3-0.2,0.5-0.1c0.2,0,0.4,0.1,0.5,0.2c0.1,0.1,0.1,0.3,0.1,0.5v0.1c0,0.5-0.2,1-0.4,1.4
					c-0.3,0.4-1.1,0.6-2.4,0.6c-0.6,0-1.7,0-2.3-0.1c-0.6-0.1-1.1-0.2-1.4-0.3c-0.3-0.1-0.5-0.3-0.6-0.5c-0.1-0.2-0.2-0.4-0.2-0.6
					C193.7,54.5,193.7,54.2,193.7,54z"/>
				<path class="st2" d="M197.3,51.6c0.2,0,0.4,0.2,0.6,0.4l0.7,0.8c0.2,0.3,0.4,0.5,0.4,0.7c0,0.2-0.1,0.3-0.3,0.5
					c-0.2,0.2-0.4,0.2-0.7,0.1c-0.1,0-0.2-0.1-0.3-0.2c-0.1-0.1-0.2-0.2-0.3-0.4l-0.6-0.7c-0.1-0.2-0.2-0.3-0.3-0.4
					c-0.1-0.2,0-0.4,0.1-0.5c0.1-0.1,0.3-0.2,0.4-0.3C197.1,51.6,197.2,51.6,197.3,51.6z"/>
				<path class="st2" d="M203.8,55.8c-0.2,0.1-0.4,0.2-0.6,0.1c-0.2,0-0.4-0.2-0.5-0.3c-0.1-0.2-0.3-0.5-0.4-0.9
					c-0.1-0.4-0.3-0.9-0.6-1.3c-0.3-0.5-0.4-0.8-0.5-0.9c0-0.2,0-0.3,0.1-0.5c0.1-0.2,0.2-0.3,0.4-0.3c0.2,0,0.3,0,0.5,0
					c0.1,0,0.2,0.1,0.4,0.2c0.1,0.1,0.2,0.3,0.3,0.6c0.2,0.4,0.3,0.6,0.5,1c0.2,0.5,0.5,1.1,0.5,1.1c0.1,0.2,0.2,0.6,0.2,0.8
					C204,55.5,203.9,55.7,203.8,55.8z"/>
				<path class="st2" d="M189.7,55.6c0,0.2-0.1,0.3-0.2,0.4c-0.1,0.1-0.3,0.2-0.5,0.2c-0.2,0-0.4-0.1-0.5-0.2
					c-0.1-0.1-0.2-0.3-0.2-0.4v-6.4c-0.2,0.2-0.5,0.4-0.8,0.6c-0.3,0.2-0.6,0.2-0.8,0c-0.2-0.2-0.3-0.4-0.3-0.6
					c0-0.1,0.1-0.2,0.2-0.3c0.1-0.1,0.3-0.2,0.6-0.5c0.3-0.3,0.7-0.6,1.1-1c0.4-0.4,0.7-0.7,0.9-1.1c0.3-0.3,0.5-0.6,0.7-0.8
					c0.2-0.2,0.5-0.3,0.7-0.1c0.2,0.2,0.3,0.4,0.3,0.6c0,0.2-0.1,0.4-0.2,0.6l-1,1.2V55.6z M190,42.1c0.2,0,0.4,0,0.6,0.1
					c0.2,0.1,0.3,0.3,0.3,0.5c0,0.1-0.1,0.3-0.2,0.4c-0.1,0.2-0.3,0.4-0.6,0.8c-0.3,0.3-0.6,0.8-1,1.2c-0.4,0.5-0.8,0.8-1,1
					c-0.3,0.2-0.5,0.2-0.8,0c-0.3-0.2-0.4-0.4-0.3-0.5c0-0.1,0.1-0.2,0.2-0.3c0.1-0.1,0.3-0.3,0.5-0.6c0.2-0.3,0.4-0.5,0.6-0.7
					l0.5-0.7c0.5-0.7,0.8-1,0.9-1.1C189.7,42.2,189.8,42.2,190,42.1z M203.2,51h-11.5c-0.2,0-0.4-0.1-0.5-0.2
					c-0.1-0.1-0.2-0.2-0.2-0.4c0-0.2,0.1-0.3,0.2-0.4c0.1-0.1,0.3-0.2,0.5-0.2h11.5c0.2,0,0.4,0.1,0.5,0.2c0.1,0.1,0.2,0.3,0.2,0.4
					c0,0.2-0.1,0.3-0.2,0.4C203.5,50.9,203.4,51,203.2,51z M197.9,44.4v0.9h3.5c0.7,0,1.2,0.1,1.4,0.3c0.2,0.2,0.3,0.6,0.3,1v1.1
					c0,0.2,0,0.4-0.1,0.6c-0.1,0.2-0.2,0.3-0.4,0.5c-0.2,0.2-0.6,0.3-1.2,0.3H193c-0.3,0-0.6,0-0.8-0.1c-0.2-0.1-0.5-0.2-0.6-0.4
					c-0.2-0.2-0.3-0.5-0.3-1v-1.2c0-0.2,0.1-0.4,0.2-0.6c0.1-0.2,0.2-0.3,0.4-0.4c0.2-0.1,0.6-0.2,1.1-0.2h3.4v-0.9h-4.6
					c-0.2,0-0.3-0.1-0.5-0.1c-0.1-0.1-0.2-0.2-0.2-0.4c0-0.2,0.1-0.3,0.2-0.4c0.1-0.1,0.3-0.2,0.5-0.2h4.6v-0.6
					c0-0.1,0.1-0.3,0.2-0.4c0.1-0.1,0.3-0.2,0.5-0.2c0.2,0,0.4,0.1,0.6,0.2c0.2,0.1,0.2,0.2,0.2,0.4v0.6h5.2c0.2,0,0.3,0,0.5,0.1
					c0.1,0.1,0.2,0.2,0.2,0.4c0,0.2,0,0.3-0.2,0.4c-0.1,0.1-0.3,0.2-0.5,0.2H197.9z M193.4,48h1.3v-1.6h-1.3c-0.3,0-0.5,0-0.7,0.1
					c-0.1,0.1-0.2,0.3-0.2,0.5v0.4c0,0.3,0.1,0.4,0.2,0.5C193,47.9,193.2,48,193.4,48z M198.3,46.4h-2.2V48h2.2V46.4z M199.6,46.4
					V48h1.3c0.4,0,0.6,0,0.7-0.1c0.1-0.1,0.1-0.2,0.1-0.4V47c0-0.2-0.1-0.3-0.2-0.4c-0.1-0.1-0.4-0.2-0.8-0.2H199.6z"/>
			</g>
			<path class="st2" d="M221.4,43.7v-1c0-0.2,0.1-0.3,0.2-0.4c0.1-0.1,0.3-0.2,0.5-0.2c0.2,0,0.4,0,0.5,0.2c0.1,0.1,0.2,0.3,0.2,0.4
				v1h5.5c0.9,0,1.5,0.1,1.7,0.3c0.2,0.2,0.3,0.4,0.4,0.6c0.1,0.2,0.1,0.5,0.1,0.8v5.3c0,0.2,0,0.4-0.1,0.7
				c-0.1,0.3-0.3,0.6-0.5,0.7c-0.3,0.2-0.8,0.3-1.6,0.3h-5.5v1.6c0,0.1,0,0.3,0,0.4c0,0.1,0,0.2,0.1,0.3c0,0.1,0.1,0.1,0.3,0.2
				c0.2,0,0.4,0.1,0.6,0.1c0.2,0,0.6,0,1.1,0c0.5,0,1.1,0,1.4,0c0.3,0,0.7,0,1.6,0c0.9,0,1.3,0,1.5-0.1c0.1,0,0.2-0.1,0.3-0.1
				c0.1-0.1,0.2-0.2,0.2-0.4l0.1-0.6c0-0.2,0.1-0.3,0.2-0.4c0.1-0.1,0.2-0.2,0.4-0.2c0.2,0,0.4,0,0.6,0.1c0.2,0.2,0.3,0.4,0.2,0.8
				c0,0.2-0.1,0.5-0.2,0.8c-0.1,0.3-0.2,0.6-0.4,0.7c-0.2,0.1-0.3,0.2-0.6,0.3c-0.3,0.1-0.6,0.1-1,0.1c-0.4,0-0.9,0-1.5,0
				c-0.6,0-1,0-1.3,0c-1.9,0-3.2,0-3.7-0.1c-0.5-0.1-0.8-0.3-1-0.5c-0.2-0.2-0.3-0.5-0.3-1v-2.1h-5.3c-0.4,0-0.6,0-0.9-0.1
				c-0.3-0.1-0.6-0.2-0.7-0.3c-0.1-0.1-0.3-0.3-0.4-0.5c-0.1-0.2-0.2-0.5-0.2-0.9v-5.2c0-0.4,0-0.7,0.1-0.9c0.1-0.2,0.2-0.4,0.4-0.6
				c0.2-0.2,0.7-0.3,1.5-0.3H221.4z M221.4,47.3v-2.5h-5.3c-0.3,0-0.3,0-0.4,0.1c-0.1,0.1-0.2,0.1-0.2,0.2c0,0.1-0.1,0.2-0.1,0.4
				v1.8H221.4z M221.4,51.3v-2.9h-6.1v2c0,0.3,0,0.5,0.1,0.6c0.1,0.1,0.2,0.2,0.3,0.2c0.1,0,0.2,0.1,0.6,0.1H221.4z M222.8,47.3h6.4
				v-1.6c0-0.3,0-0.4,0-0.5c0-0.1-0.1-0.2-0.2-0.3c-0.1-0.1-0.4-0.1-0.7-0.1h-5.4V47.3z M222.8,48.4v2.9h5.3c0.3,0,0.5,0,0.7-0.1
				c0.1,0,0.2-0.1,0.3-0.2c0.1-0.1,0.1-0.3,0.1-0.6v-2.1H222.8z"/>
			<g>
				<path class="st2" d="M253.2,49.8h-10.4c-0.2,0-0.3,0-0.4-0.1c-0.1-0.1-0.2-0.3-0.2-0.4c0-0.2,0-0.3,0.2-0.4
					c0.1-0.1,0.3-0.2,0.5-0.2h11c0.3,0,0.9,0,1.3,0.1c0.4,0.1,0.6,0.2,0.7,0.4c0.1,0.2,0.2,0.4,0.3,0.6c0,0.2,0.1,0.8,0.2,1.8
					c0.1,1.3,0.6,2.2,0.7,2.4c0.2,0.2,0.3,0.4,0.4,0.4c0.1,0,0.2-0.1,0.3-0.4c0.1-0.2,0.1-0.5,0.1-0.8c0-0.3,0.1-0.5,0.2-0.8
					c0.1-0.2,0.2-0.3,0.5-0.4c0.2,0,0.4,0,0.5,0.1c0.1,0,0.1,0.1,0.1,0.2c0,0.1,0.1,0.2,0.1,0.4c0,0.2,0,0.5-0.1,1l-0.1,0.7
					c-0.2,0.7-0.4,1.2-0.5,1.4c-0.2,0.2-0.4,0.3-0.6,0.3c-0.2,0-0.3,0-0.5-0.1c-0.2-0.1-0.4-0.2-0.5-0.2c-0.2-0.1-0.3-0.2-0.5-0.5
					c-0.3-0.3-1-1.1-1.3-2.7c-0.2-0.9-0.2-1.4-0.2-1.8c0-0.3,0-0.4-0.1-0.5c-0.1-0.1-0.1-0.2-0.3-0.3
					C254.3,49.8,253.8,49.8,253.2,49.8z"/>
				<path class="st2" d="M245,46h11.4c0.2,0,0.4,0.1,0.5,0.2c0.1,0.1,0.2,0.3,0.2,0.4c0,0.2-0.1,0.3-0.2,0.4
					c-0.1,0.1-0.3,0.2-0.5,0.2H245c-0.1,0-0.3-0.1-0.4-0.2c-0.1-0.1-0.2-0.3-0.2-0.4c0-0.2,0.1-0.3,0.2-0.4
					C244.7,46.1,244.8,46,245,46z"/>
				<path class="st2" d="M245.3,43.3l0.2-0.4c0.1-0.2,0-0.5-0.1-0.7c-0.1-0.1-0.3-0.2-0.5-0.2c-0.2,0-0.4,0.1-0.5,0.2
					c-0.1,0.1-0.3,0.4-0.4,0.8c-0.1,0.4-0.4,0.9-0.8,1.5c-0.4,0.6-0.7,1.2-1.1,1.6c-0.4,0.4-0.6,0.7-0.6,0.8
					c-0.1,0.2-0.2,0.4-0.2,0.5c0,0.1,0.1,0.2,0.2,0.3c0.1,0.1,0.3,0.1,0.5,0.1c0.4-0.1,0.8-0.4,1.2-1c0.4-0.6,0.9-1.3,1.4-2.2h0
					C245.1,43.8,245.2,43.3,245.3,43.3L245.3,43.3z"/>
				<path class="st2" d="M258.5,43.6c-0.1-0.1-0.3-0.2-0.5-0.2h-13.8v1.1H258c0.2,0,0.3-0.1,0.5-0.2c0.1-0.1,0.2-0.2,0.2-0.4
					C258.7,43.9,258.6,43.7,258.5,43.6z"/>
			</g>
		</g>
		<path class="st2" d="M225.9,32.3v-4h2.4V27h-2.4v-1.6l-2.9,2.8v0.2h1.3v4.1c0,1.4,0.8,2.4,2.5,2.4c0.5,0,1.3-0.2,1.9-0.5v-1.4
			c-0.6,0.4-1.2,0.6-1.7,0.6C226.6,33.5,225.9,33.2,225.9,32.3 M255.5,24.1h0.6v1.7h0.2v-1.7h0.6v-0.2h-1.5V24.1z M208.5,20.3h4.3
			V6.7h-4.3V20.3z M214.8,30.8c0-1.6,1-2.6,2.4-2.6c0.7,0,1.3,0.2,2.1,0.8v-1.6c-0.7-0.3-1.3-0.5-2.2-0.5c-2.3,0-3.8,1.6-3.8,4.2
			c0,2.3,1.6,3.9,3.9,3.9c0.8,0,1.8-0.2,2.3-0.4v-1.5c-0.8,0.3-1.4,0.5-2,0.5C215.8,33.4,214.8,32.4,214.8,30.8 M250.4,30.8
			c0-1.6,1-2.6,2.4-2.6c0.7,0,1.3,0.2,2.1,0.8v-1.6c-0.7-0.3-1.3-0.5-2.2-0.5c-2.3,0-3.8,1.6-3.8,4.2c0,2.3,1.6,3.9,3.9,3.9
			c0.8,0,1.8-0.2,2.3-0.4v-1.5c-0.8,0.3-1.4,0.5-2,0.5C251.4,33.4,250.4,32.4,250.4,30.8 M235.1,12c0.2-1.9,1.3-3,2.9-3
			c1.6,0,2.8,1.1,2.9,3H235.1z M237.8,6.5c-4.2,0-7.2,2.9-7.2,7.1c0,4.2,3.1,6.9,7.9,6.9c1.1,0,3.6,0,6.1-1.8v-2.6
			c-2,1.4-3.3,1.9-5,1.9c-2.7,0-4.3-1.4-4.5-3.8h9.7C245,9.3,241.7,6.5,237.8,6.5 M243.3,24c-0.5,0.3-0.7,0.8-0.6,1.2
			c0.1,0.4,0.6,0.5,1.1,0.2c0.5-0.3,0.7-0.8,0.6-1.2C244.2,23.8,243.7,23.7,243.3,24 M204.5,30c0.2-1.2,0.9-1.9,2.1-1.9
			c1.1,0,1.8,0.7,1.8,1.9H204.5z M206.5,26.8c-2.1,0-3.6,1.6-3.6,3.9c0,2.1,1.3,4.1,3.7,4.1c1.3,0,2.1-0.3,3.1-0.9v-1.5
			c-0.9,0.6-1.8,0.9-2.7,0.9c-1.5,0-2.4-0.8-2.6-2.3h5.4C209.8,28.2,208.5,26.8,206.5,26.8 M234.6,28.8L234.6,28.8l0-1.8H233v7.7
			h1.5v-4c0-1.3,0.8-2.4,1.9-2.4c0.4,0,1,0.3,1.4,0.8l0.8-1.3c-0.6-0.6-1.2-0.9-1.8-0.9C236.1,26.8,235.3,27.4,234.6,28.8
			 M242.8,34.7h1.5V27h-1.5V34.7z M224.6,16.6c-0.9,0.8-1.6,1.1-2.5,1.1c-2,0-3.3-1.6-3.3-4.1c0-2.7,1.3-4.3,3.4-4.3
			c0.8,0,1.8,0.4,2.4,0.8V16.6z M224.6,7.3c-1.1-0.6-2.3-0.8-3.5-0.8c-3.9,0-6.6,2.9-6.6,7c0,4.1,2.7,7,6.3,7c1.4,0,2.6-0.4,3.8-1.3
			v1.1h4.3v-20h-4.3V7.3z M178.9,24.8h-2.5c-0.3,0-0.4,0-0.5,0.2c0,0-0.1,0.1-0.1,0.2l-1.4,5.1c-0.3,1.8-2.5,3.6-5.4,3.6h-4l0.7-2.6
			h2.6c0.3,0,0.5-0.1,0.6-0.3c0.1-0.1,0.1-0.2,0.2-0.3l1.1-4.5c0.3-1.8,2.2-3.8,5.1-3.8h4.1L178.9,24.8z M166.8,22.7
			c-0.7,0.7-1.4,1.4-1.9,2.2h2.5l-0.6,1.7h-3c-0.3,0.5-0.5,1-0.7,1.6h3.6l-0.6,1.7h-3.5c-0.6,2.5-0.2,4.9,1.3,6.4
			c2.9,2.9,9.1,1.9,13.7-2.5c0.8-0.8,1.5-1.6,2.1-2.4h-3.3l0.5-1.7h3.8c0.3-0.5,0.5-1.1,0.7-1.6h-4.1l0.5-1.7h4.2
			c0.5-2.4,0.1-4.6-1.4-6.1C177.6,17.3,171.4,18.3,166.8,22.7 M166,11.6c1-1.4,1.9-2.1,2.8-2.1c1.3,0,2.2,0.9,2.2,3v4.8
			c1.4-0.6,2.9-1,4.3-1.1v-4.7c0-3.7-2.5-5.2-5-5.2c-1.7,0-3.1,0.7-4.3,2.3H166V0.3h-4.3v20h4.3V11.6z M136.4,5.3c0-1,1.2-1.6,3-1.6
			c1.7,0,3.5,0.5,6.4,1.8V1.6c-2.5-1.1-4.6-1.6-6.8-1.6c-4.7,0-7.7,2.3-7.7,5.7c0,7.2,10.2,6,10.2,9.2c0,1.2-1,1.8-3,1.8
			c-2.2,0-4-0.7-6.9-2.6v4.3c2,1,3.7,1.9,7.2,1.9c4.5,0,7.7-2.2,7.7-6.1C146.6,7.5,136.4,8.3,136.4,5.3 M255.5,6.5
			c-1.6,0-3.1,1.3-4.3,4.1h-0.1V6.7h-4.3v13.5h4.3v-5.8c0.9-2.5,1.9-4,3.5-4c0.7,0,1.4,0.3,2.5,1l1.2-3.8
			C257.1,6.8,256.4,6.5,255.5,6.5 M152.1,13.5c0-2.4,1.6-3.9,4.2-3.9c1.1,0,2.3,0.3,3.5,0.9V7.3c-1.4-0.5-3.2-0.9-4.6-0.9
			c-4.5,0-7.7,2.9-7.7,7.1c0,4.2,3.1,7,7.8,7c1.4,0,2.9-0.3,4.6-0.9v-3.1c-1.9,0.7-2.8,0.9-3.8,0.9
			C153.8,17.5,152.1,15.9,152.1,13.5 M191,20.3v-8.6c0-4-2.8-5.2-4.9-5.2c-1.7,0-3.1,0.6-4.4,2.2V6.7h-4.3v9.6
			c1.7,0.2,3.1,0.8,4.3,1.9v-6.6c1.1-1.7,1.9-2.2,3-2.2c1.2,0,2.1,0.8,2.1,2.7v8.3H191z M258.9,23.9l-0.6,1.5l-0.6-1.5h-0.4v1.9h0.2
			v-1.7h0l0.7,1.7h0.1l0.7-1.7h0v1.7h0.2v-1.9H258.9z M197.2,34.7h1.5V23h-1.5V34.7z M200.1,9c1.6,0,2.8,1.1,2.9,3h-5.9
			C197.3,10.1,198.4,9,200.1,9 M206.6,16.1c-2,1.4-3.3,1.9-5,1.9c-2.7,0-4.3-1.4-4.5-3.8h9.7c0.2-4.9-3.1-7.7-7-7.7
			c-4.2,0-7.2,2.9-7.2,7.1c0,4.2,3.1,6.9,7.9,6.9c1.1,0,3.6,0,6.1-1.8V16.1z M188.4,29.5h4.8V28h-4.8v-3.5h5V23h-6.6v11.7h6.8v-1.5
			h-5.1V29.5z M209.9,0.5c-1.3,0.8-2,2.2-1.6,3.3c0.4,1.1,1.8,1.3,3,0.5c1.3-0.8,2-2.2,1.6-3.3C212.5,0,211.1-0.3,209.9,0.5"/>
	</g>
</g>
</svg>
